<?xml version="1.0" standalone="no"?>
<!DOCTYPE svg PUBLIC "-//W3C//DTD SVG 20010904//EN"
 "http://www.w3.org/TR/2001/REC-SVG-20010904/DTD/svg10.dtd">
<svg version="1.0" xmlns="http://www.w3.org/2000/svg"
 width="300.000000pt" height="300.000000pt" viewBox="0 0 300.000000 300.000000"
 preserveAspectRatio="xMidYMid meet">
<metadata>
Created by potrace 1.10, written by Peter Selinger 2001-2011
</metadata>
<g transform="translate(0.000000,300.000000) scale(0.100000,-0.100000)"
fill="#000000" stroke="none">
<path d="M40 1498 l0 -1493 1460 3 1460 2 0 1490 0 1490 -1460 0 -1460 0 0
-1492z m2890 -3 l0 -1465 -1430 0 -1430 0 -1 23 c-1 12 -1 26 0 30 1 9 0 2766
-1 2812 -1 17 0 38 0 48 2 16 77 17 1432 17 l1430 0 0 -1465z"/>
<path d="M140 2880 c-16 -29 -14 -2748 1 -2766 16 -19 2698 -21 2717 -2 9 9
12 330 12 1383 0 1316 -1 1373 -18 1388 -17 16 -126 17 -1360 17 -1335 0
-1341 0 -1352 -20z m2700 -1385 l0 -1375 -1340 0 -1340 0 -2 1375 -3 1375
1343 0 1342 0 0 -1375z"/>
<path d="M640 2318 l0 -133 80 0 80 0 0 38 0 37 270 0 270 0 0 -24 c0 -12 -60
-329 -134 -702 -74 -373 -136 -688 -138 -699 -3 -18 -10 -20 -64 -17 -57 3
-63 2 -83 -24 -26 -33 -26 -45 -3 -74 l18 -22 559 0 559 0 18 22 c23 29 23 41
-3 74 -20 25 -27 27 -77 24 l-55 -3 -64 325 c-165 841 -203 1041 -203 1079 l0
41 269 0 269 0 -5 -37 -5 -38 86 0 86 0 0 133 0 132 -865 0 -865 0 0 -132z
m1695 -3 l0 -100 -50 0 c-44 0 -50 3 -53 22 -2 12 -9 26 -15 31 -7 6 -122 12
-281 13 -253 3 -269 2 -282 -16 -20 -28 -18 -48 31 -300 25 -126 56 -288 70
-360 14 -71 30 -150 35 -175 5 -25 12 -56 14 -70 3 -14 21 -108 41 -210 20
-102 42 -218 50 -258 17 -94 24 -102 95 -102 60 0 77 -12 65 -49 -5 -15 -53
-17 -550 -18 -476 -2 -546 0 -560 13 -11 12 -12 20 -5 35 9 15 22 19 69 19 35
0 63 5 69 13 6 7 24 80 40 162 17 83 33 164 36 180 4 17 9 46 12 65 2 19 7 42
10 50 3 8 8 26 10 40 2 14 7 41 11 60 3 19 7 42 9 50 1 8 7 38 13 65 17 80 62
303 77 385 7 41 25 131 39 199 29 142 31 193 10 211 -11 9 -83 13 -280 13
-277 0 -295 -3 -295 -44 0 -16 -8 -19 -49 -19 l-50 0 -3 84 c-2 46 -2 91 0 99
3 14 88 16 835 14 l832 -2 0 -100z"/>
<path d="M1401 2156 c-6 -7 -17 -45 -26 -85 -17 -80 -12 -96 37 -124 62 -36
78 -14 78 106 0 64 -4 88 -16 97 -21 18 -61 21 -73 6z m59 -110 l0 -94 -38 21
-38 21 14 73 c13 66 17 73 38 73 24 0 24 -2 24 -94z"/>
<path d="M1522 2148 c-15 -18 -9 -182 7 -202 11 -14 17 -13 56 7 25 12 47 28
50 36 6 16 -12 128 -26 153 -11 21 -71 25 -87 6z m78 -65 c6 -32 13 -63 15
-70 3 -10 -52 -53 -69 -53 -3 0 -6 41 -6 90 0 89 0 90 24 90 22 0 26 -6 36
-57z"/>
<path d="M1613 1932 c-21 -3 -53 -36 -53 -54 0 -4 18 -20 40 -35 37 -24 43
-25 56 -11 11 11 14 25 9 51 -8 42 -21 54 -52 49z m33 -89 c-1 -1 -16 8 -34
19 l-33 21 28 18 28 19 6 -38 c4 -20 6 -38 5 -39z"/>
<path d="M1351 1916 c-18 -22 -18 -67 0 -79 13 -8 24 -5 48 12 37 26 39 44 9
65 -28 20 -42 20 -57 2z m43 -19 c17 -13 17 -14 -8 -30 -33 -22 -33 -22 -28
13 5 33 10 36 36 17z"/>
<path d="M1398 1809 c-71 -36 -100 -71 -96 -118 3 -33 9 -39 78 -78 69 -39 76
-41 92 -26 26 24 27 212 1 236 -16 14 -23 13 -75 -14z m59 -206 c-3 -3 -112
55 -135 72 -1 1 1 16 4 34 5 26 17 38 60 63 30 16 57 35 61 41 5 7 9 -37 11
-97 1 -60 1 -110 -1 -113z"/>
<path d="M1523 1818 c-5 -7 -10 -56 -12 -109 -2 -84 0 -97 18 -113 19 -17 22
-17 83 15 81 43 88 51 88 92 0 31 -32 77 -54 77 -4 0 -24 11 -44 25 -41 28
-65 31 -79 13z m134 -76 c6 -4 14 -19 18 -33 6 -24 1 -30 -64 -67 l-71 -41 0
105 0 104 53 -30 c28 -17 57 -34 64 -38z"/>
<path d="M1288 1601 c-9 -10 -20 -47 -27 -82 -9 -53 -8 -66 4 -78 13 -13 21
-11 70 15 57 29 95 59 95 72 0 14 -16 30 -55 54 -58 36 -70 38 -87 19z m75
-41 c26 -13 47 -26 47 -29 -1 -7 -132 -83 -136 -79 -5 6 29 139 35 136 3 -2
27 -14 54 -28z"/>
<path d="M1665 1609 c-57 -27 -100 -59 -103 -77 -2 -14 11 -28 50 -53 88 -56
111 -64 129 -43 9 11 9 28 0 75 -21 104 -32 119 -76 98z m63 -164 c-4 -4 -147
79 -148 85 0 3 26 19 58 36 l57 31 18 -75 c9 -41 16 -76 15 -77z"/>
<path d="M1420 1473 c-8 -3 -17 -9 -20 -12 -3 -4 -31 -20 -64 -36 -76 -39
-116 -76 -116 -109 0 -20 12 -33 55 -61 31 -19 61 -35 68 -35 6 0 35 -12 62
-25 l50 -25 18 21 c14 17 17 41 17 136 0 143 -12 168 -70 146z m40 -146 l0
-133 -109 53 c-139 66 -140 74 -3 154 54 31 100 57 105 58 4 1 7 -59 7 -132z"/>
<path d="M1522 1458 c-5 -7 -10 -68 -11 -134 -1 -107 2 -123 18 -138 19 -17
23 -16 95 18 41 20 81 36 88 36 7 1 26 11 41 24 55 45 27 90 -92 152 -20 10
-48 26 -63 36 -31 21 -61 23 -76 6z m224 -122 c1 -1 4 -11 8 -22 6 -19 -4 -26
-91 -64 -54 -23 -104 -44 -110 -47 -10 -4 -13 25 -13 125 l0 130 103 -61 c56
-33 103 -61 103 -61z"/>
<path d="M1211 1227 c-14 -18 -44 -164 -37 -183 6 -16 47 -19 74 -5 9 6 49 24
89 42 39 17 74 37 77 45 6 17 -30 43 -116 83 -78 36 -72 35 -87 18z m109 -56
l75 -39 -35 -14 c-19 -8 -60 -26 -90 -38 -30 -13 -61 -28 -69 -34 -12 -9 -13
-7 -8 14 4 14 12 53 19 88 6 34 16 62 22 62 6 -1 45 -18 86 -39z"/>
<path d="M1725 1214 c-78 -30 -135 -59 -140 -73 -3 -7 0 -20 7 -29 18 -22 196
-104 216 -100 13 3 17 14 16 53 -3 72 -14 127 -32 148 -18 20 -16 20 -67 1z
m81 -181 c-4 -4 -205 90 -205 97 -1 3 39 21 87 41 l87 35 17 -85 c10 -46 16
-86 14 -88z"/>
<path d="M1397 1070 c-20 -11 -41 -20 -47 -20 -5 0 -42 -16 -83 -35 -41 -19
-78 -35 -84 -35 -20 0 -40 -37 -53 -97 -19 -94 -20 -93 175 -93 158 0 162 1
172 23 13 25 12 245 0 265 -12 17 -37 15 -80 -8z m63 -127 l0 -128 -160 0
c-105 0 -159 4 -156 10 2 6 9 35 15 65 l12 55 142 62 c78 34 143 62 145 62 1
1 2 -56 2 -126z"/>
<path d="M1526 1074 c-13 -12 -16 -39 -16 -130 0 -64 5 -124 10 -135 10 -18
23 -19 175 -19 148 0 165 2 174 18 10 19 -4 108 -20 128 -9 11 -290 154 -302
154 -3 0 -13 -7 -21 -16z m319 -205 l10 -54 -157 0 -158 0 0 125 0 125 147
-71 147 -71 11 -54z"/>
<path d="M570 1866 c0 -71 1 -74 21 -69 12 4 20 2 18 -3 -2 -6 -46 -105 -98
-222 l-94 -212 -39 0 -38 0 0 -70 0 -70 140 0 140 0 0 70 c0 63 -2 70 -20 70
-24 0 -24 1 -7 43 l14 32 117 -5 118 -5 13 -32 c13 -31 13 -33 -8 -33 -21 0
-22 -5 -22 -70 l0 -70 137 0 136 0 4 70 3 70 -42 0 c-24 0 -43 4 -43 9 0 5
-42 104 -94 221 -76 171 -90 211 -75 207 17 -5 19 1 19 69 l0 74 -150 0 -150
0 0 -74z m270 19 c10 -26 0 -68 -19 -79 -10 -7 -8 -22 10 -61 4 -11 45 -103
89 -205 44 -101 84 -188 89 -193 4 -4 18 -10 31 -12 29 -6 39 -21 36 -54 l-3
-26 -112 -3 -111 -3 0 28 c0 15 9 43 21 62 17 28 19 38 9 62 -23 55 -36 60
-166 57 l-119 -3 -23 -42 c-22 -41 -22 -43 -5 -60 11 -11 20 -36 21 -61 l3
-42 -111 0 c-88 0 -110 3 -110 14 0 8 -2 20 -5 28 -7 19 8 38 35 43 13 3 30
10 37 17 13 14 168 362 184 412 6 22 5 34 -7 47 -16 17 -25 65 -17 87 4 8 37
12 119 12 113 0 115 0 124 -25z"/>
<path d="M696 1688 c-66 -103 -59 -133 30 -133 54 0 59 2 62 23 5 31 -43 132
-62 132 -9 0 -22 -10 -30 -22z m31 -116 c-27 -2 -51 -1 -53 1 -2 2 8 30 22 63
l26 59 27 -60 27 -60 -49 -3z"/>
<path d="M1910 1865 c0 -73 1 -75 25 -75 l25 0 0 -220 0 -220 -30 0 -30 0 0
-70 0 -70 130 0 130 0 0 70 c0 70 0 70 -27 70 l-28 0 0 155 c0 84 3 151 6 147
3 -4 43 -86 89 -182 45 -96 84 -177 86 -179 2 -2 8 7 13 20 5 13 45 98 90 189
l81 164 0 -157 0 -157 -27 0 c-28 0 -28 0 -28 -70 l0 -70 130 0 130 0 0 70 c0
69 0 70 -27 70 l-27 0 -3 220 -3 220 28 0 27 0 0 73 0 74 -114 2 -114 2 -25
-53 c-14 -29 -48 -102 -78 -162 l-52 -110 -78 162 -78 162 -110 0 -111 0 0
-75z m277 -104 c40 -80 77 -149 82 -154 14 -14 49 1 57 25 14 44 124 262 136
269 7 4 52 8 100 8 l87 0 -4 -41 c-2 -22 -5 -41 -7 -42 -45 -20 -43 -10 -46
-249 l-2 -225 25 -20 c16 -13 28 -35 32 -57 l6 -36 -104 3 -104 3 -1 36 c-1
30 4 39 28 54 l30 17 -5 153 c-7 231 -19 233 -122 23 -42 -84 -80 -157 -85
-162 -6 -6 -13 1 -19 17 -20 53 -133 272 -147 287 -14 13 -17 13 -30 -4 -11
-15 -14 -55 -14 -167 0 -142 1 -148 23 -166 33 -26 38 -39 31 -68 -6 -25 -7
-25 -105 -25 l-99 0 0 39 c0 34 4 42 28 53 l27 13 -2 225 c-2 214 -3 226 -22
242 -15 11 -21 28 -21 57 l0 42 88 -3 87 -3 72 -144z"/>
</g>
</svg>
